<?xml version="1.0" encoding="utf-8"?>
<!-- Generator: Adobe Illustrator 16.0.0, SVG Export Plug-In . SVG Version: 6.00 Build 0)  -->
<!DOCTYPE svg PUBLIC "-//W3C//DTD SVG 1.1//EN" "http://www.w3.org/Graphics/SVG/1.1/DTD/svg11.dtd">
<svg version="1.1" id="Layer_1" xmlns="http://www.w3.org/2000/svg" xmlns:xlink="http://www.w3.org/1999/xlink" x="0px" y="0px"
	 width="32px" height="32px" viewBox="0 0 32 32" enable-background="new 0 0 32 32" xml:space="preserve">
<g>
	<path fill="#161616" d="M25.981,6.476h-2.307v-0.6c0-1.181-0.957-2.138-2.137-2.138h-1.021c-0.03-2.086-1.729-3.761-3.815-3.761
		s-3.785,1.675-3.815,3.761h-1.021c-1.18,0-2.137,0.957-2.137,2.138v0.6H7.421c-0.765,0-1.408,0.618-1.408,1.383v22.78
		c0,0.765,0.643,1.384,1.408,1.384h18.561c0.765,0,1.408-0.619,1.408-1.384V7.858C27.389,7.094,26.746,6.476,25.981,6.476z
		 M16.701,1.976c0.984,0,1.788,0.785,1.817,1.762h-3.634C14.914,2.761,15.717,1.976,16.701,1.976z M25.629,30.327H7.773V8.169h1.955
		v1.564h13.946V8.169h1.955V30.327z"/>
	<path fill="#161616" d="M23.155,12.667H18.66c-0.708,0-1.283,0.527-1.283,1.236s0.575,1.238,1.283,1.238h4.495
		c0.708,0,1.282-0.529,1.282-1.238S23.863,12.667,23.155,12.667z"/>
	<path fill="#161616" d="M12.16,13.841l-0.965-0.752c-0.238-0.187-0.58-0.156-0.782,0.068l-0.556,0.616
		c-0.106,0.118-0.159,0.275-0.146,0.435c0.014,0.159,0.092,0.305,0.217,0.403l1.683,1.328c0.406,0.321,0.988,0.287,1.354-0.079
		l2.949-2.949c0.143-0.143,0.223-0.336,0.223-0.538s-0.08-0.396-0.223-0.538l-0.337-0.337c-0.297-0.297-0.778-0.297-1.075,0
		L12.16,13.841z"/>
	<path fill="#161616" d="M23.155,18.401H18.66c-0.708,0-1.283,0.529-1.283,1.238c0,0.707,0.575,1.238,1.283,1.238h4.495
		c0.708,0,1.282-0.531,1.282-1.238C24.437,18.931,23.863,18.401,23.155,18.401z"/>
	<path fill="#161616" d="M12.16,19.575l-0.965-0.752c-0.238-0.186-0.58-0.155-0.782,0.069l-0.556,0.616
		c-0.106,0.118-0.159,0.275-0.146,0.435c0.014,0.158,0.092,0.305,0.217,0.403l1.683,1.328c0.407,0.321,0.989,0.286,1.355-0.079
		l2.95-2.95c0.143-0.143,0.223-0.336,0.223-0.538c0-0.201-0.08-0.396-0.223-0.538l-0.337-0.337c-0.297-0.297-0.778-0.297-1.075,0
		L12.16,19.575z"/>
	<path fill="#161616" d="M23.155,23.94H18.66c-0.708,0-1.283,0.529-1.283,1.238s0.575,1.238,1.283,1.238h4.495
		c0.708,0,1.282-0.529,1.282-1.238S23.863,23.94,23.155,23.94z"/>
	<path fill="#161616" d="M12.16,25.114l-0.965-0.752c-0.238-0.187-0.58-0.156-0.782,0.068l-0.556,0.616
		c-0.106,0.118-0.16,0.275-0.146,0.435c0.013,0.159,0.092,0.305,0.217,0.403l1.683,1.329c0.407,0.32,0.989,0.286,1.355-0.08
		l2.95-2.95c0.297-0.297,0.297-0.777,0-1.075l-0.337-0.337c-0.143-0.143-0.336-0.223-0.538-0.223s-0.395,0.08-0.538,0.223
		L12.16,25.114z"/>
</g>
</svg>
