<?xml version="1.0" encoding="iso-8859-1"?>
<!-- Generator: Adobe Illustrator 16.0.4, SVG Export Plug-In . SVG Version: 6.00 Build 0)  -->
<!DOCTYPE svg PUBLIC "-//W3C//DTD SVG 1.1//EN" "http://www.w3.org/Graphics/SVG/1.1/DTD/svg11.dtd">
<svg version="1.1" id="Capa_1" xmlns="http://www.w3.org/2000/svg" xmlns:xlink="http://www.w3.org/1999/xlink" x="0px" y="0px"
	 width="32px" height="32px" viewBox="0 0 32 32" style="enable-background:new 0 0 32 32;" xml:space="preserve">
<g id="Statics">
	<g>
		<path d="M31.834,1.552c0.305-0.461,0.178-1.08-0.282-1.386c-0.462-0.305-1.081-0.179-1.386,0.283l-3.699,5.599
			C26.312,6.023,26.159,6,25.999,6c-1.653,0-3,1.347-3,3c0,0.318,0.063,0.619,0.155,0.907l-3.572,4.555
			C19.121,14.174,18.582,14,18,14c-1.613,0-2.924,1.283-2.988,2.881l-5.651,3.29C8.812,19.464,7.963,19,7,19c-1.654,0-3,1.346-3,3
			c0,0.65,0.214,1.25,0.566,1.741l-4.402,6.71c-0.303,0.462-0.175,1.082,0.287,1.385C0.62,31.947,0.811,32,0.999,32
			c0.326,0,0.646-0.158,0.837-0.451l4.375-6.667C6.464,24.951,6.726,25,7,25c1.613,0,2.924-1.282,2.988-2.881l5.651-3.289
			C16.188,19.536,17.037,20,18,20c1.654,0,3-1.346,3-3c0-0.318-0.062-0.619-0.154-0.906l3.571-4.555
			c0.461,0.287,1,0.461,1.582,0.461c1.653,0,3-1.346,3-3c0-0.767-0.298-1.459-0.772-1.99L31.834,1.552z M7,23c-0.552,0-1-0.448-1-1
			c0-0.551,0.448-1,1-1s1,0.449,1,1C8,22.552,7.552,23,7,23z M18,18c-0.552,0-1-0.448-1-1c0-0.551,0.448-1,1-1s1,0.449,1,1
			C19,17.552,18.552,18,18,18z M25.999,10c-0.552,0-1-0.448-1-1c0-0.551,0.448-1,1-1s1,0.449,1,1C26.999,9.552,26.551,10,25.999,10z
			 M6,30c-0.553,0-1,0.448-1,1c0,0.553,0.447,1,1,1s1-0.447,1-1C7,30.448,6.553,30,6,30z M11,30c-0.553,0-1,0.448-1,1
			c0,0.553,0.447,1,1,1s1-0.447,1-1C12,30.448,11.553,30,11,30z M16,30c-0.553,0-1,0.448-1,1c0,0.553,0.447,1,1,1
			c0.553,0,1-0.447,1-1C17,30.448,16.553,30,16,30z M21,30c-0.553,0-1,0.448-1,1c0,0.553,0.447,1,1,1s1-0.447,1-1
			C22,30.448,21.553,30,21,30z M26,30c-0.553,0-1,0.448-1,1c0,0.553,0.447,1,1,1s1-0.447,1-1C27,30.448,26.553,30,26,30z M31,30
			c-0.553,0-1,0.448-1,1c0,0.553,0.447,1,1,1s1-0.447,1-1C32,30.448,31.553,30,31,30z M1,27c0.553,0,1-0.447,1-1
			c0-0.552-0.447-1-1-1s-1,0.448-1,1C0,26.553,0.447,27,1,27z M1,22c0.553,0,1-0.447,1-1c0-0.552-0.447-1-1-1s-1,0.448-1,1
			C0,21.553,0.447,22,1,22z M1,17c0.553,0,1-0.447,1-1c0-0.552-0.447-1-1-1s-1,0.448-1,1C0,16.553,0.447,17,1,17z M1,12
			c0.553,0,1-0.446,1-1c0-0.552-0.447-1-1-1s-1,0.448-1,1C0,11.554,0.447,12,1,12z M1,7c0.553,0,1-0.446,1-1c0-0.552-0.447-1-1-1
			S0,5.448,0,6C0,6.554,0.447,7,1,7z M1,2c0.553,0,1-0.446,1-1c0-0.552-0.447-1-1-1S0,0.448,0,1C0,1.554,0.447,2,1,2z"/>
	</g>
</g>
</svg>
